<mxfile host="app.diagrams.net" modified="2023-07-25T18:20:47.555Z" agent="Mozilla/5.0 (Windows NT 10.0; Win64; x64) AppleWebKit/537.36 (KHTML, like Gecko) Chrome/114.0.0.0 Safari/537.36" version="21.6.5" etag="BVkgs6SsUrrjhCUdBWkC" type="device">
  <diagram id="D4lSv4HFGXRDxHeHW7UU" name="Página-1">
    <mxGraphModel dx="1050" dy="491" grid="1" gridSize="10" guides="1" tooltips="1" connect="1" arrows="1" fold="1" page="1" pageScale="1" pageWidth="1169" pageHeight="1654" math="0" shadow="0">
      <root>
        <mxCell id="0" />
        <mxCell id="1" parent="0" />
        <mxCell id="32UOnkBOXtxhSO2OWPn7-1" value="Construa o Modelo Entidade Relacionamento considerando o seguinte cenário:&#xa;&#xa;&#xa;- uma empresa possui vários veículos&#xa;- um veículo possui marca(gm, ford, fiat), modelo(onix, fiesta, argo) e placa&#xa;- um cliente (cpf, nome) aluga um ou mais veículos" style="text;whiteSpace=wrap;" vertex="1" parent="1">
          <mxGeometry x="110" y="20" width="460" height="110" as="geometry" />
        </mxCell>
        <mxCell id="32UOnkBOXtxhSO2OWPn7-2" value="Empresa" style="rounded=0;whiteSpace=wrap;html=1;" vertex="1" parent="1">
          <mxGeometry x="360" y="160" width="120" height="60" as="geometry" />
        </mxCell>
        <mxCell id="32UOnkBOXtxhSO2OWPn7-3" value="marca" style="rounded=0;whiteSpace=wrap;html=1;" vertex="1" parent="1">
          <mxGeometry x="40" y="400" width="120" height="60" as="geometry" />
        </mxCell>
        <mxCell id="32UOnkBOXtxhSO2OWPn7-18" style="edgeStyle=orthogonalEdgeStyle;rounded=0;orthogonalLoop=1;jettySize=auto;html=1;entryX=0.5;entryY=0;entryDx=0;entryDy=0;endArrow=none;endFill=0;" edge="1" parent="1" source="32UOnkBOXtxhSO2OWPn7-4" target="32UOnkBOXtxhSO2OWPn7-9">
          <mxGeometry relative="1" as="geometry" />
        </mxCell>
        <mxCell id="32UOnkBOXtxhSO2OWPn7-19" style="edgeStyle=orthogonalEdgeStyle;rounded=0;orthogonalLoop=1;jettySize=auto;html=1;entryX=1;entryY=0.5;entryDx=0;entryDy=0;endArrow=none;endFill=0;" edge="1" parent="1" source="32UOnkBOXtxhSO2OWPn7-4" target="32UOnkBOXtxhSO2OWPn7-7">
          <mxGeometry relative="1" as="geometry" />
        </mxCell>
        <mxCell id="32UOnkBOXtxhSO2OWPn7-21" style="edgeStyle=orthogonalEdgeStyle;rounded=0;orthogonalLoop=1;jettySize=auto;html=1;entryX=0;entryY=0.5;entryDx=0;entryDy=0;endArrow=none;endFill=0;" edge="1" parent="1" source="32UOnkBOXtxhSO2OWPn7-4" target="32UOnkBOXtxhSO2OWPn7-8">
          <mxGeometry relative="1" as="geometry" />
        </mxCell>
        <mxCell id="32UOnkBOXtxhSO2OWPn7-27" style="edgeStyle=orthogonalEdgeStyle;rounded=0;orthogonalLoop=1;jettySize=auto;html=1;entryX=0.5;entryY=1;entryDx=0;entryDy=0;endArrow=none;endFill=0;" edge="1" parent="1" source="32UOnkBOXtxhSO2OWPn7-4" target="32UOnkBOXtxhSO2OWPn7-6">
          <mxGeometry relative="1" as="geometry" />
        </mxCell>
        <mxCell id="32UOnkBOXtxhSO2OWPn7-4" value="Veiculo" style="rounded=0;whiteSpace=wrap;html=1;" vertex="1" parent="1">
          <mxGeometry x="360" y="400" width="120" height="60" as="geometry" />
        </mxCell>
        <mxCell id="32UOnkBOXtxhSO2OWPn7-23" style="edgeStyle=orthogonalEdgeStyle;rounded=0;orthogonalLoop=1;jettySize=auto;html=1;entryX=0.5;entryY=0;entryDx=0;entryDy=0;endArrow=none;endFill=0;" edge="1" parent="1" source="32UOnkBOXtxhSO2OWPn7-5" target="32UOnkBOXtxhSO2OWPn7-11">
          <mxGeometry relative="1" as="geometry" />
        </mxCell>
        <mxCell id="32UOnkBOXtxhSO2OWPn7-5" value="Aluguel" style="rounded=0;whiteSpace=wrap;html=1;" vertex="1" parent="1">
          <mxGeometry x="700" y="400" width="120" height="60" as="geometry" />
        </mxCell>
        <mxCell id="32UOnkBOXtxhSO2OWPn7-28" style="edgeStyle=orthogonalEdgeStyle;rounded=0;orthogonalLoop=1;jettySize=auto;html=1;entryX=0.5;entryY=1;entryDx=0;entryDy=0;endArrow=none;endFill=0;" edge="1" parent="1" source="32UOnkBOXtxhSO2OWPn7-6" target="32UOnkBOXtxhSO2OWPn7-2">
          <mxGeometry relative="1" as="geometry" />
        </mxCell>
        <mxCell id="32UOnkBOXtxhSO2OWPn7-6" value="possui" style="rhombus;whiteSpace=wrap;html=1;" vertex="1" parent="1">
          <mxGeometry x="380" y="260" width="80" height="80" as="geometry" />
        </mxCell>
        <mxCell id="32UOnkBOXtxhSO2OWPn7-20" style="edgeStyle=orthogonalEdgeStyle;rounded=0;orthogonalLoop=1;jettySize=auto;html=1;entryX=1;entryY=0.5;entryDx=0;entryDy=0;endArrow=none;endFill=0;" edge="1" parent="1" source="32UOnkBOXtxhSO2OWPn7-7" target="32UOnkBOXtxhSO2OWPn7-3">
          <mxGeometry relative="1" as="geometry" />
        </mxCell>
        <mxCell id="32UOnkBOXtxhSO2OWPn7-7" value="possui" style="rhombus;whiteSpace=wrap;html=1;" vertex="1" parent="1">
          <mxGeometry x="220" y="390" width="80" height="80" as="geometry" />
        </mxCell>
        <mxCell id="32UOnkBOXtxhSO2OWPn7-22" style="edgeStyle=orthogonalEdgeStyle;rounded=0;orthogonalLoop=1;jettySize=auto;html=1;entryX=0;entryY=0.5;entryDx=0;entryDy=0;endArrow=none;endFill=0;" edge="1" parent="1" source="32UOnkBOXtxhSO2OWPn7-8" target="32UOnkBOXtxhSO2OWPn7-5">
          <mxGeometry relative="1" as="geometry" />
        </mxCell>
        <mxCell id="32UOnkBOXtxhSO2OWPn7-8" value="possui" style="rhombus;whiteSpace=wrap;html=1;" vertex="1" parent="1">
          <mxGeometry x="570" y="390" width="80" height="80" as="geometry" />
        </mxCell>
        <mxCell id="32UOnkBOXtxhSO2OWPn7-17" style="edgeStyle=orthogonalEdgeStyle;rounded=0;orthogonalLoop=1;jettySize=auto;html=1;entryX=0.5;entryY=0;entryDx=0;entryDy=0;endArrow=none;endFill=0;" edge="1" parent="1" source="32UOnkBOXtxhSO2OWPn7-9" target="32UOnkBOXtxhSO2OWPn7-13">
          <mxGeometry relative="1" as="geometry" />
        </mxCell>
        <mxCell id="32UOnkBOXtxhSO2OWPn7-9" value="possui" style="rhombus;whiteSpace=wrap;html=1;" vertex="1" parent="1">
          <mxGeometry x="380" y="510" width="80" height="80" as="geometry" />
        </mxCell>
        <mxCell id="32UOnkBOXtxhSO2OWPn7-24" style="edgeStyle=orthogonalEdgeStyle;rounded=0;orthogonalLoop=1;jettySize=auto;html=1;entryX=0.5;entryY=0;entryDx=0;entryDy=0;endArrow=none;endFill=0;" edge="1" parent="1" source="32UOnkBOXtxhSO2OWPn7-11" target="32UOnkBOXtxhSO2OWPn7-12">
          <mxGeometry relative="1" as="geometry" />
        </mxCell>
        <mxCell id="32UOnkBOXtxhSO2OWPn7-11" value="possui" style="rhombus;whiteSpace=wrap;html=1;" vertex="1" parent="1">
          <mxGeometry x="720" y="510" width="80" height="80" as="geometry" />
        </mxCell>
        <mxCell id="32UOnkBOXtxhSO2OWPn7-25" style="edgeStyle=orthogonalEdgeStyle;rounded=0;orthogonalLoop=1;jettySize=auto;html=1;entryX=0.5;entryY=0;entryDx=0;entryDy=0;endArrow=none;endFill=0;" edge="1" parent="1" source="32UOnkBOXtxhSO2OWPn7-12" target="32UOnkBOXtxhSO2OWPn7-15">
          <mxGeometry relative="1" as="geometry" />
        </mxCell>
        <mxCell id="32UOnkBOXtxhSO2OWPn7-26" style="edgeStyle=orthogonalEdgeStyle;rounded=0;orthogonalLoop=1;jettySize=auto;html=1;entryX=0.5;entryY=0;entryDx=0;entryDy=0;endArrow=none;endFill=0;" edge="1" parent="1" source="32UOnkBOXtxhSO2OWPn7-12" target="32UOnkBOXtxhSO2OWPn7-16">
          <mxGeometry relative="1" as="geometry" />
        </mxCell>
        <mxCell id="32UOnkBOXtxhSO2OWPn7-12" value="Cliente" style="rounded=0;whiteSpace=wrap;html=1;" vertex="1" parent="1">
          <mxGeometry x="700" y="640" width="120" height="60" as="geometry" />
        </mxCell>
        <mxCell id="32UOnkBOXtxhSO2OWPn7-13" value="Modelo" style="rounded=0;whiteSpace=wrap;html=1;" vertex="1" parent="1">
          <mxGeometry x="360" y="630" width="120" height="60" as="geometry" />
        </mxCell>
        <mxCell id="32UOnkBOXtxhSO2OWPn7-31" style="edgeStyle=orthogonalEdgeStyle;rounded=0;orthogonalLoop=1;jettySize=auto;html=1;entryX=0.837;entryY=-0.057;entryDx=0;entryDy=0;entryPerimeter=0;endArrow=none;endFill=0;" edge="1" parent="1" source="32UOnkBOXtxhSO2OWPn7-14" target="32UOnkBOXtxhSO2OWPn7-4">
          <mxGeometry relative="1" as="geometry" />
        </mxCell>
        <mxCell id="32UOnkBOXtxhSO2OWPn7-14" value="placa" style="ellipse;whiteSpace=wrap;html=1;" vertex="1" parent="1">
          <mxGeometry x="540" y="300" width="60" height="30" as="geometry" />
        </mxCell>
        <mxCell id="32UOnkBOXtxhSO2OWPn7-15" value="nome" style="ellipse;whiteSpace=wrap;html=1;" vertex="1" parent="1">
          <mxGeometry x="660" y="750" width="60" height="30" as="geometry" />
        </mxCell>
        <mxCell id="32UOnkBOXtxhSO2OWPn7-16" value="cpf" style="ellipse;whiteSpace=wrap;html=1;" vertex="1" parent="1">
          <mxGeometry x="810" y="750" width="60" height="30" as="geometry" />
        </mxCell>
        <mxCell id="32UOnkBOXtxhSO2OWPn7-34" value="1" style="text;html=1;align=center;verticalAlign=middle;resizable=0;points=[];autosize=1;strokeColor=none;fillColor=none;" vertex="1" parent="1">
          <mxGeometry x="420" y="220" width="30" height="30" as="geometry" />
        </mxCell>
        <mxCell id="32UOnkBOXtxhSO2OWPn7-35" value="1" style="text;html=1;align=center;verticalAlign=middle;resizable=0;points=[];autosize=1;strokeColor=none;fillColor=none;" vertex="1" parent="1">
          <mxGeometry x="420" y="600" width="30" height="30" as="geometry" />
        </mxCell>
        <mxCell id="32UOnkBOXtxhSO2OWPn7-36" value="1" style="text;html=1;align=center;verticalAlign=middle;resizable=0;points=[];autosize=1;strokeColor=none;fillColor=none;" vertex="1" parent="1">
          <mxGeometry x="760" y="610" width="30" height="30" as="geometry" />
        </mxCell>
        <mxCell id="32UOnkBOXtxhSO2OWPn7-37" value="1" style="text;html=1;align=center;verticalAlign=middle;resizable=0;points=[];autosize=1;strokeColor=none;fillColor=none;" vertex="1" parent="1">
          <mxGeometry x="480" y="400" width="30" height="30" as="geometry" />
        </mxCell>
        <mxCell id="32UOnkBOXtxhSO2OWPn7-38" value="1" style="text;html=1;align=center;verticalAlign=middle;resizable=0;points=[];autosize=1;strokeColor=none;fillColor=none;" vertex="1" parent="1">
          <mxGeometry x="160" y="400" width="30" height="30" as="geometry" />
        </mxCell>
        <mxCell id="32UOnkBOXtxhSO2OWPn7-39" value="N" style="text;html=1;align=center;verticalAlign=middle;resizable=0;points=[];autosize=1;strokeColor=none;fillColor=none;" vertex="1" parent="1">
          <mxGeometry x="760" y="460" width="30" height="30" as="geometry" />
        </mxCell>
        <mxCell id="32UOnkBOXtxhSO2OWPn7-40" value="N" style="text;html=1;align=center;verticalAlign=middle;resizable=0;points=[];autosize=1;strokeColor=none;fillColor=none;" vertex="1" parent="1">
          <mxGeometry x="420" y="460" width="30" height="30" as="geometry" />
        </mxCell>
        <mxCell id="32UOnkBOXtxhSO2OWPn7-41" value="N" style="text;html=1;align=center;verticalAlign=middle;resizable=0;points=[];autosize=1;strokeColor=none;fillColor=none;" vertex="1" parent="1">
          <mxGeometry x="670" y="400" width="30" height="30" as="geometry" />
        </mxCell>
        <mxCell id="32UOnkBOXtxhSO2OWPn7-42" value="N" style="text;html=1;align=center;verticalAlign=middle;resizable=0;points=[];autosize=1;strokeColor=none;fillColor=none;" vertex="1" parent="1">
          <mxGeometry x="330" y="400" width="30" height="30" as="geometry" />
        </mxCell>
        <mxCell id="32UOnkBOXtxhSO2OWPn7-43" value="N" style="text;html=1;align=center;verticalAlign=middle;resizable=0;points=[];autosize=1;strokeColor=none;fillColor=none;" vertex="1" parent="1">
          <mxGeometry x="420" y="370" width="30" height="30" as="geometry" />
        </mxCell>
      </root>
    </mxGraphModel>
  </diagram>
</mxfile>
